<?xml version="1.0" encoding="UTF-8" standalone="no"?>
<!-- Created with Inkscape (http://www.inkscape.org/) -->

<svg
   width="1920"
   height="1080"
   viewBox="0 0 508 285.75"
   version="1.1"
   id="svg5"
   inkscape:version="1.1.2 (b8e25be8, 2022-02-05)"
   sodipodi:docname="computer.svg"
   xmlns:inkscape="http://www.inkscape.org/namespaces/inkscape"
   xmlns:sodipodi="http://sodipodi.sourceforge.net/DTD/sodipodi-0.dtd"
   xmlns="http://www.w3.org/2000/svg"
   xmlns:svg="http://www.w3.org/2000/svg">
  <sodipodi:namedview
     id="namedview7"
     pagecolor="#ffffff"
     bordercolor="#999999"
     borderopacity="1"
     inkscape:pageshadow="0"
     inkscape:pageopacity="0"
     inkscape:pagecheckerboard="0"
     inkscape:document-units="mm"
     showgrid="false"
     units="px"
     inkscape:zoom="0.5499273"
     inkscape:cx="1068.323"
     inkscape:cy="745.55309"
     inkscape:window-width="2160"
     inkscape:window-height="1252"
     inkscape:window-x="705"
     inkscape:window-y="831"
     inkscape:window-maximized="0"
     inkscape:current-layer="layer1" />
  <defs
     id="defs2" />
  <g
     inkscape:label="Layer 1"
     inkscape:groupmode="layer"
     id="layer1">
    <g
       id="g4695"
       transform="matrix(1.4381506,0,0,1.4381506,-102.91451,91.541998)">
      <g
         fill-opacity="0.858824"
         transform="matrix(0.26458333,0,0,0.26458333,186.66361,-49.555514)"
         stroke="#ff7100"
         fill="#ff8300"
         id="g1403">
        <title
           id="title1399">.2</title>
        <rect
           stroke-linejoin="round"
           fill-opacity="0.858824"
           height="16.157"
           width="4.2519999"
           stroke="#ff7100"
           stroke-linecap="round"
           stroke-miterlimit="3"
           y="441.66"
           x="0"
           stroke-width="0.72"
           fill="#ff8300"
           id="rect1401" />
      </g>
      <g
         transform="matrix(0.26458333,0,0,0.26458333,186.66361,-21.430571)"
         id="g1420">
        <title
           id="title1411">.1</title>
        <radialGradient
           id="t"
           gradientUnits="userSpaceOnUse"
           cy="-368.686"
           cx="-114.473"
           gradientTransform="matrix(120.47,0,0,162.99,13911,60387)"
           r="1">
          <stop
             stop-color="#1A00A6"
             offset="0"
             id="stop1413" />
          <stop
             stop-color="#1A124F"
             offset="1"
             id="stop1415" />
        </radialGradient>
        <path
           stroke-linejoin="round"
           d="M 0.43,295.11 0,295.96 v 38.55 h 4.25 v 34.02 H 0 v 88.3 l 0.28,0.85 1.14,0.14 h 118.15 l 0.76,-0.57 0.14,-0.57 V 354.83 l -2.83,0.09 v -9.07 l 2.83,0.04 v -29.8 L 99.21,294.83 H 1.28 Z"
           stroke="#0d005e"
           stroke-linecap="round"
           stroke-miterlimit="3"
           stroke-width="0.72"
           fill="url(#t)"
           id="path1418"
           style="fill:url(#t)" />
      </g>
      <g
         transform="matrix(0.26458333,0,0,0.26458333,188.9136,-24.805595)"
         id="g1426">
        <title
           id="title1422">.3</title>
        <path
           d="m 14.173,324.59 h 75.119 c 7.827,0 14.173,6.346 14.173,14.173 v 104.881 c 0,7.828 -6.346,14.173 -14.173,14.173 H 14.173 C 6.346,457.818 0,451.473 0,443.645 V 338.763 C 0,330.936 6.346,324.59 14.173,324.59 Z"
           fill="#142478"
           id="path1424" />
      </g>
      <g
         transform="matrix(0.26458333,0,0,0.26458333,188.9136,-24.805595)"
         id="g1432">
        <title
           id="title1428">.3</title>
        <path
           stroke-linejoin="round"
           d="m 14.173,324.59 h 75.119 c 7.827,0 14.173,6.346 14.173,14.173 v 104.881 c 0,7.828 -6.346,14.173 -14.173,14.173 H 14.173 C 6.346,457.818 0,451.473 0,443.645 V 338.763 C 0,330.936 6.346,324.59 14.173,324.59 Z"
           stroke="#0d005e"
           stroke-linecap="round"
           stroke-miterlimit="3"
           stroke-width="0.72"
           fill="none"
           id="path1430" />
      </g>
      <g
         transform="matrix(0.26458333,0,0,0.26458333,192.47611,-23.056435)"
         id="g1443">
        <title
           id="title1434">.4</title>
        <linearGradient
           id="i"
           y2="457.10101"
           gradientUnits="userSpaceOnUse"
           x2="37.913601"
           y1="456.10101"
           x1="37.913601">
          <stop
             stop-color="#24056E"
             offset="0"
             id="stop1436" />
          <stop
             stop-color="#1A00A1"
             offset="1"
             id="stop1438" />
        </linearGradient>
        <path
           stroke-linejoin="round"
           d="m 1.18,455.459 h 73.468 c 0.651,0 1.179,0.528 1.179,1.18 v 0 c 0,0.651 -0.527,1.179 -1.179,1.179 H 1.18 C 0.529,457.818 0,457.29 0,456.639 v 0 c 0,-0.652 0.529,-1.18 1.18,-1.18 z"
           stroke="#080336"
           stroke-linecap="round"
           stroke-miterlimit="3"
           stroke-width="0.72"
           fill="url(#i)"
           id="path1441"
           style="fill:url(#i)" />
      </g>
      <g
         transform="matrix(0.26458333,0,0,0.26458333,188.9136,-44.299037)"
         id="g1449">
        <title
           id="title1445">.8</title>
        <path
           d="m 103.21,426.61 v 22.68 c -4.498,3.96 -16.142,8.57 -25.586,8.53 -8.558,-0.04 -15.306,-3.88 -19.784,-8 -8.977,-8.27 -14.082,-17.265 -32.666,-17.265 -16,0 -24.924,7.385 -24.924,3.975 v -9.92 z"
           fill="#6387ff"
           id="path1447" />
      </g>
      <g
         transform="matrix(0.26458333,0,0,0.26458333,188.90373,-52.555624)"
         id="g1455">
        <title
           id="title1451">.9</title>
        <path
           d="m 103.295,443.678 c 0,-3.667 -1.083,-6.583 -3,-8.833 -2.125,-2.495 -6.229,-5.271 -10.563,-5.188 l -75.125,-0.125 c -5.5,0 -8.71,2.522 -11,4.563 -2.1,1.87 -3.563,6.104 -3.563,10.25 l 0.242,13.472 h 103.21 z"
           fill="#de0d00"
           id="path1453" />
      </g>
      <g
         transform="matrix(0.26458333,0,0,0.26458333,212.48638,-51.858447)"
         id="g1633">
        <title
           id="title1627">.19</title>
        <desc
           id="desc1629">TM</desc>
        <rect
           height="13.702"
           width="14.371"
           y="444.116"
           x="0"
           fill="none"
           id="rect1631" />
      </g>
      <rect
         height="7.1458664"
         width="23.125954"
         y="79.342834"
         x="189.89383"
         fill="none"
         id="rect1740"
         style="stroke-width:0.268237" />
      <g
         enable-background="new    "
         id="g1744"
         transform="matrix(0.27194206,0,0,0.26458333,183.90985,-28.147135)">
        <path
           d="m 33.875,459.012 v -3.761 c 1.239,-2.896 3.747,-6.052 7.523,-9.469 l 2.442,-2.183 c 3.143,-2.838 4.713,-5.655 4.713,-8.453 0,-1.79 -0.538,-3.195 -1.612,-4.22 -1.074,-1.025 -2.555,-1.537 -4.445,-1.537 -2.207,0 -4.816,0.858 -7.83,2.573 v -3.761 c 2.846,-1.342 5.677,-2.012 8.494,-2.012 3.004,0 5.413,0.809 7.226,2.423 1.813,1.615 2.719,3.758 2.719,6.427 0,1.916 -0.459,3.616 -1.376,5.1 -0.917,1.484 -2.625,3.286 -5.125,5.404 l -1.647,1.405 c -3.424,2.896 -5.403,5.665 -5.937,8.301 h 13.92 v 3.761 H 33.875 Z"
           fill="#ffffff"
           id="path1742" />
      </g>
      <g
         transform="matrix(0.26458333,0,0,0.26458333,186.92192,-43.534656)"
         id="g1766">
        <title
           id="title1748">.5</title>
        <desc
           id="desc1750">LOCK</desc>
        <rect
           y="437.81799"
           width="51.904999"
           height="20"
           fill="none"
           id="rect1752"
           x="0" />
        <g
           enable-background="new    "
           fill="#ffffff"
           id="g1764">
          <path
             d="m 18.654,444.798 -2.773,5.543 -2.773,-5.543 z"
             id="path1754" />
          <path
             d="m 20.424,450.22 v -5.727 h 0.758 v 5.051 h 2.82 v 0.676 z"
             id="path1756" />
          <path
             d="m 24.674,447.431 c 0,-0.95 0.255,-1.694 0.766,-2.232 0.511,-0.538 1.169,-0.807 1.977,-0.807 0.529,0 1.005,0.126 1.43,0.379 0.425,0.253 0.748,0.604 0.971,1.057 0.223,0.453 0.334,0.964 0.334,1.537 0,0.581 -0.117,1.101 -0.352,1.559 -0.235,0.458 -0.566,0.806 -0.996,1.041 -0.43,0.235 -0.893,0.354 -1.391,0.354 -0.539,0 -1.021,-0.13 -1.445,-0.391 -0.424,-0.261 -0.746,-0.616 -0.965,-1.066 -0.219,-0.45 -0.329,-0.929 -0.329,-1.431 z m 0.781,0.011 c 0,0.69 0.186,1.233 0.557,1.631 0.371,0.398 0.836,0.596 1.396,0.596 0.57,0 1.04,-0.2 1.408,-0.602 0.368,-0.402 0.553,-0.97 0.553,-1.707 0,-0.466 -0.079,-0.873 -0.236,-1.221 -0.157,-0.348 -0.388,-0.617 -0.691,-0.809 -0.303,-0.192 -0.644,-0.287 -1.021,-0.287 -0.537,0 -0.998,0.185 -1.385,0.553 -0.387,0.368 -0.581,0.984 -0.581,1.846 z"
             id="path1758" />
          <path
             d="m 35.213,448.212 0.758,0.191 c -0.159,0.622 -0.445,1.097 -0.857,1.424 -0.412,0.327 -0.917,0.49 -1.514,0.49 -0.617,0 -1.119,-0.126 -1.506,-0.377 -0.387,-0.251 -0.681,-0.615 -0.883,-1.092 -0.202,-0.477 -0.303,-0.988 -0.303,-1.535 0,-0.597 0.114,-1.116 0.342,-1.561 0.228,-0.445 0.552,-0.781 0.973,-1.012 0.421,-0.231 0.883,-0.346 1.389,-0.346 0.573,0 1.055,0.146 1.445,0.438 0.39,0.292 0.663,0.702 0.816,1.23 l -0.746,0.176 c -0.133,-0.417 -0.326,-0.72 -0.578,-0.91 -0.252,-0.19 -0.57,-0.285 -0.953,-0.285 -0.44,0 -0.808,0.105 -1.104,0.316 -0.296,0.211 -0.503,0.494 -0.623,0.85 -0.12,0.356 -0.18,0.722 -0.18,1.1 0,0.487 0.071,0.912 0.213,1.275 0.142,0.363 0.363,0.635 0.662,0.814 0.299,0.179 0.624,0.27 0.973,0.27 0.424,0 0.784,-0.122 1.078,-0.367 0.294,-0.245 0.494,-0.608 0.598,-1.089 z"
             id="path1760" />
          <path
             d="m 36.873,450.22 v -5.727 h 0.758 v 2.84 l 2.844,-2.84 h 1.027 l -2.402,2.32 2.508,3.406 h -1 l -2.039,-2.898 -0.938,0.914 v 1.984 z"
             id="path1762" />
        </g>
      </g>
      <g
         transform="matrix(0.26458333,0,0,0.26458333,187.35525,-51.388812)"
         id="g1802">
        <title
           id="title1768">.53</title>
        <desc
           id="desc1770">Secure Digital</desc>
        <rect
           height="20"
           width="65.638"
           y="437.81799"
           x="0"
           fill="none"
           id="rect1772" />
        <g
           enable-background="new    "
           fill="#ffffff"
           id="g1800">
          <path
             d="m 9.89,448.38 0.715,-0.063 c 0.034,0.286 0.113,0.521 0.236,0.705 0.123,0.184 0.316,0.332 0.576,0.445 0.26,0.113 0.553,0.17 0.879,0.17 0.289,0 0.544,-0.043 0.766,-0.129 0.222,-0.086 0.386,-0.204 0.494,-0.354 0.108,-0.15 0.162,-0.313 0.162,-0.49 0,-0.18 -0.052,-0.337 -0.156,-0.471 -0.104,-0.134 -0.276,-0.247 -0.516,-0.338 -0.154,-0.06 -0.494,-0.153 -1.02,-0.279 -0.526,-0.126 -0.895,-0.245 -1.105,-0.357 -0.273,-0.144 -0.477,-0.321 -0.611,-0.533 -0.134,-0.212 -0.201,-0.45 -0.201,-0.713 0,-0.289 0.082,-0.56 0.246,-0.811 0.164,-0.251 0.404,-0.442 0.719,-0.572 0.315,-0.13 0.666,-0.195 1.051,-0.195 0.424,0 0.799,0.068 1.123,0.205 0.324,0.137 0.574,0.338 0.748,0.604 0.174,0.266 0.268,0.566 0.281,0.902 l -0.727,0.055 c -0.039,-0.362 -0.171,-0.636 -0.396,-0.82 -0.225,-0.184 -0.558,-0.277 -0.998,-0.277 -0.458,0 -0.792,0.084 -1.002,0.252 -0.21,0.168 -0.314,0.37 -0.314,0.607 0,0.206 0.074,0.375 0.223,0.508 0.146,0.133 0.527,0.269 1.143,0.408 0.616,0.139 1.039,0.261 1.268,0.365 0.333,0.153 0.58,0.349 0.738,0.584 0.158,0.235 0.238,0.507 0.238,0.814 0,0.305 -0.087,0.592 -0.262,0.861 -0.175,0.269 -0.425,0.479 -0.752,0.629 -0.327,0.15 -0.695,0.225 -1.104,0.225 -0.518,0 -0.953,-0.075 -1.303,-0.227 -0.35,-0.152 -0.625,-0.378 -0.824,-0.682 C 10.006,449.104 9.9,448.763 9.89,448.38 Z"
             id="path1774" />
          <path
             d="m 18.233,448.884 0.727,0.09 c -0.115,0.425 -0.327,0.754 -0.637,0.988 -0.31,0.234 -0.706,0.352 -1.188,0.352 -0.607,0 -1.088,-0.187 -1.443,-0.561 -0.355,-0.374 -0.533,-0.897 -0.533,-1.572 0,-0.698 0.18,-1.239 0.539,-1.625 0.359,-0.386 0.826,-0.578 1.398,-0.578 0.555,0 1.008,0.188 1.359,0.566 0.351,0.378 0.527,0.909 0.527,1.594 0,0.042 -10e-4,0.104 -0.004,0.188 h -3.094 c 0.026,0.456 0.155,0.805 0.387,1.047 0.232,0.242 0.521,0.363 0.867,0.363 0.258,0 0.478,-0.067 0.66,-0.203 0.182,-0.136 0.329,-0.352 0.435,-0.649 z m -2.308,-1.137 h 2.316 c -0.031,-0.349 -0.12,-0.61 -0.266,-0.785 -0.224,-0.271 -0.514,-0.406 -0.871,-0.406 -0.323,0 -0.594,0.108 -0.814,0.324 -0.22,0.216 -0.342,0.505 -0.365,0.867 z"
             id="path1776" />
          <path
             d="m 22.55,448.701 0.691,0.09 c -0.076,0.477 -0.269,0.85 -0.58,1.119 -0.311,0.269 -0.693,0.404 -1.146,0.404 -0.568,0 -1.024,-0.186 -1.369,-0.557 -0.345,-0.371 -0.518,-0.903 -0.518,-1.596 0,-0.448 0.074,-0.84 0.223,-1.176 0.149,-0.336 0.375,-0.588 0.678,-0.756 0.303,-0.168 0.633,-0.252 0.99,-0.252 0.451,0 0.819,0.114 1.105,0.342 0.286,0.228 0.47,0.552 0.551,0.971 l -0.684,0.105 c -0.065,-0.278 -0.18,-0.488 -0.346,-0.629 -0.166,-0.141 -0.365,-0.211 -0.6,-0.211 -0.354,0 -0.642,0.127 -0.863,0.381 -0.221,0.254 -0.332,0.655 -0.332,1.205 0,0.558 0.107,0.962 0.32,1.215 0.213,0.253 0.492,0.379 0.836,0.379 0.276,0 0.506,-0.085 0.691,-0.254 0.185,-0.169 0.304,-0.429 0.353,-0.78 z"
             id="path1778" />
          <path
             d="m 26.562,450.22 v -0.609 c -0.323,0.469 -0.762,0.703 -1.316,0.703 -0.245,0 -0.473,-0.047 -0.686,-0.141 -0.213,-0.094 -0.37,-0.212 -0.473,-0.354 -0.103,-0.142 -0.175,-0.315 -0.217,-0.521 -0.029,-0.138 -0.043,-0.356 -0.043,-0.656 v -2.57 h 0.703 v 2.301 c 0,0.367 0.014,0.614 0.043,0.742 0.044,0.185 0.138,0.33 0.281,0.436 0.143,0.106 0.32,0.158 0.531,0.158 0.211,0 0.409,-0.054 0.594,-0.162 0.185,-0.108 0.316,-0.255 0.393,-0.441 0.077,-0.186 0.115,-0.456 0.115,-0.811 v -2.223 h 0.703 v 4.148 z"
             id="path1780" />
          <path
             d="m 28.284,450.22 v -4.148 h 0.633 v 0.629 c 0.162,-0.294 0.311,-0.488 0.447,-0.582 0.136,-0.094 0.287,-0.141 0.451,-0.141 0.237,0 0.478,0.075 0.723,0.227 l -0.242,0.652 c -0.172,-0.102 -0.344,-0.152 -0.516,-0.152 -0.154,0 -0.292,0.046 -0.414,0.139 -0.122,0.093 -0.209,0.221 -0.262,0.385 -0.078,0.25 -0.117,0.523 -0.117,0.82 v 2.172 z"
             id="path1782" />
          <path
             d="m 33.796,448.884 0.727,0.09 c -0.115,0.425 -0.327,0.754 -0.637,0.988 -0.31,0.234 -0.706,0.352 -1.188,0.352 -0.607,0 -1.088,-0.187 -1.443,-0.561 -0.355,-0.374 -0.533,-0.897 -0.533,-1.572 0,-0.698 0.18,-1.239 0.539,-1.625 0.359,-0.386 0.826,-0.578 1.398,-0.578 0.555,0 1.008,0.188 1.359,0.566 0.351,0.378 0.527,0.909 0.527,1.594 0,0.042 -0.001,0.104 -0.004,0.188 h -3.094 c 0.026,0.456 0.155,0.805 0.387,1.047 0.232,0.242 0.521,0.363 0.867,0.363 0.258,0 0.478,-0.067 0.66,-0.203 0.182,-0.136 0.328,-0.352 0.435,-0.649 z m -2.309,-1.137 h 2.316 c -0.031,-0.349 -0.12,-0.61 -0.266,-0.785 -0.224,-0.271 -0.514,-0.406 -0.871,-0.406 -0.323,0 -0.594,0.108 -0.814,0.324 -0.22,0.216 -0.341,0.505 -0.365,0.867 z"
             id="path1784" />
          <path
             d="m 37.718,450.22 v -5.727 h 1.973 c 0.445,0 0.785,0.027 1.02,0.082 0.328,0.075 0.608,0.212 0.84,0.41 0.302,0.255 0.528,0.581 0.678,0.979 0.15,0.398 0.225,0.851 0.225,1.361 0,0.435 -0.051,0.82 -0.152,1.156 -0.101,0.336 -0.232,0.614 -0.391,0.834 -0.159,0.22 -0.333,0.394 -0.521,0.52 -0.188,0.126 -0.417,0.222 -0.684,0.287 -0.267,0.065 -0.574,0.098 -0.92,0.098 z m 0.758,-0.676 h 1.223 c 0.377,0 0.674,-0.035 0.889,-0.105 0.215,-0.07 0.386,-0.169 0.514,-0.297 0.18,-0.18 0.32,-0.421 0.42,-0.725 0.1,-0.304 0.15,-0.671 0.15,-1.104 0,-0.599 -0.098,-1.06 -0.295,-1.381 -0.197,-0.321 -0.436,-0.537 -0.717,-0.646 -0.203,-0.078 -0.53,-0.117 -0.98,-0.117 h -1.203 z"
             id="path1786" />
          <path
             d="m 43.409,445.302 v -0.809 h 0.703 v 0.809 z m 0,4.918 v -4.148 h 0.703 v 4.148 z"
             id="path1788" />
          <path
             d="m 45.054,450.564 0.684,0.102 c 0.029,0.211 0.108,0.364 0.238,0.461 0.174,0.13 0.413,0.195 0.715,0.195 0.326,0 0.577,-0.065 0.754,-0.195 0.177,-0.13 0.297,-0.313 0.359,-0.547 0.037,-0.144 0.053,-0.444 0.051,-0.902 -0.307,0.362 -0.69,0.543 -1.148,0.543 -0.57,0 -1.012,-0.206 -1.324,-0.617 -0.312,-0.411 -0.469,-0.905 -0.469,-1.48 0,-0.396 0.072,-0.761 0.215,-1.096 0.143,-0.335 0.351,-0.593 0.623,-0.775 0.272,-0.182 0.592,-0.273 0.959,-0.273 0.49,0 0.893,0.198 1.211,0.594 v -0.5 h 0.648 v 3.586 c 0,0.646 -0.066,1.104 -0.197,1.373 -0.131,0.269 -0.34,0.482 -0.625,0.639 -0.285,0.157 -0.636,0.234 -1.053,0.234 -0.495,0 -0.895,-0.111 -1.199,-0.334 -0.304,-0.223 -0.452,-0.56 -0.442,-1.008 z m 0.582,-2.492 c 0,0.544 0.108,0.941 0.324,1.191 0.216,0.25 0.487,0.375 0.813,0.375 0.323,0 0.594,-0.124 0.813,-0.373 0.219,-0.249 0.328,-0.639 0.328,-1.17 0,-0.508 -0.113,-0.891 -0.338,-1.148 -0.225,-0.257 -0.497,-0.387 -0.814,-0.387 -0.313,0 -0.578,0.127 -0.797,0.381 -0.219,0.254 -0.329,0.631 -0.329,1.131 z"
             id="path1790" />
          <path
             d="m 49.636,445.302 v -0.809 h 0.703 v 0.809 z m 0,4.918 v -4.148 h 0.703 v 4.148 z"
             id="path1792" />
          <path
             d="m 52.944,449.591 0.102,0.621 c -0.198,0.042 -0.375,0.063 -0.531,0.063 -0.255,0 -0.453,-0.04 -0.594,-0.121 -0.141,-0.081 -0.24,-0.187 -0.297,-0.318 -0.057,-0.131 -0.086,-0.408 -0.086,-0.83 v -2.387 h -0.516 v -0.547 h 0.516 v -1.027 l 0.699,-0.422 v 1.449 h 0.707 v 0.547 h -0.707 v 2.426 c 0,0.2 0.012,0.329 0.037,0.387 0.025,0.058 0.065,0.103 0.121,0.137 0.056,0.034 0.136,0.051 0.24,0.051 0.078,-10e-4 0.181,-0.01 0.309,-0.029 z"
             id="path1794" />
          <path
             d="m 56.338,449.708 c -0.26,0.222 -0.511,0.378 -0.752,0.469 -0.241,0.091 -0.5,0.137 -0.775,0.137 -0.456,0 -0.806,-0.111 -1.051,-0.334 -0.245,-0.223 -0.367,-0.507 -0.367,-0.854 0,-0.203 0.046,-0.389 0.139,-0.557 0.093,-0.168 0.213,-0.303 0.363,-0.404 0.15,-0.101 0.318,-0.179 0.506,-0.23 0.138,-0.036 0.346,-0.071 0.625,-0.105 0.568,-0.067 0.986,-0.148 1.254,-0.242 0.002,-0.097 0.004,-0.157 0.004,-0.184 0,-0.286 -0.066,-0.488 -0.199,-0.605 -0.18,-0.159 -0.447,-0.238 -0.801,-0.238 -0.331,0 -0.575,0.058 -0.732,0.174 -0.157,0.116 -0.274,0.321 -0.35,0.615 l -0.688,-0.094 c 0.063,-0.294 0.166,-0.532 0.309,-0.713 0.143,-0.181 0.35,-0.32 0.621,-0.418 0.271,-0.098 0.584,-0.146 0.941,-0.146 0.354,0 0.642,0.042 0.863,0.125 0.221,0.083 0.384,0.188 0.488,0.314 0.104,0.126 0.177,0.286 0.219,0.479 0.023,0.12 0.035,0.336 0.035,0.648 v 0.938 c 0,0.653 0.015,1.067 0.045,1.24 0.03,0.173 0.089,0.339 0.178,0.498 h -0.734 c -0.073,-0.146 -0.12,-0.317 -0.141,-0.513 z m -0.058,-1.57 c -0.255,0.104 -0.638,0.192 -1.148,0.266 -0.289,0.042 -0.494,0.089 -0.613,0.141 -0.119,0.052 -0.212,0.128 -0.277,0.229 -0.065,0.101 -0.098,0.212 -0.098,0.334 0,0.188 0.071,0.344 0.213,0.469 0.142,0.125 0.35,0.188 0.623,0.188 0.271,0 0.512,-0.06 0.723,-0.178 0.211,-0.118 0.366,-0.28 0.465,-0.486 0.076,-0.159 0.113,-0.394 0.113,-0.703 z"
             id="path1796" />
          <path
             d="m 58.065,450.22 v -5.727 h 0.703 v 5.727 z"
             id="path1798" />
        </g>
      </g>
      <g
         transform="matrix(0.26458333,0,0,0.26458333,195.17195,-27.03471)"
         id="g1816">
        <title
           id="title1804">.54</title>
        <desc
           id="desc1806">GB</desc>
        <rect
           height="20"
           width="51.905998"
           y="437.81799"
           x="0"
           fill="none"
           id="rect1808" />
        <g
           enable-background="new    "
           fill="#ffffff"
           id="g1814">
          <path
             d="m 21.04,448.195 v -1.688 h 6.063 v 5.312 c -0.932,0.742 -1.893,1.3 -2.883,1.674 -0.99,0.374 -2.006,0.562 -3.048,0.562 -1.407,0 -2.686,-0.302 -3.835,-0.903 -1.15,-0.604 -2.018,-1.475 -2.604,-2.614 -0.586,-1.139 -0.879,-2.413 -0.879,-3.82 0,-1.394 0.292,-2.694 0.875,-3.903 0.583,-1.208 1.421,-2.105 2.516,-2.691 1.094,-0.587 2.354,-0.88 3.781,-0.88 1.036,0 1.972,0.168 2.81,0.504 0.837,0.336 1.493,0.804 1.969,1.403 0.476,0.599 0.837,1.383 1.084,2.348 l -1.712,0.469 c -0.215,-0.729 -0.482,-1.303 -0.801,-1.721 -0.319,-0.416 -0.775,-0.75 -1.368,-1.002 -0.593,-0.25 -1.25,-0.376 -1.974,-0.376 -0.866,0 -1.615,0.132 -2.247,0.396 -0.632,0.264 -1.142,0.611 -1.529,1.042 -0.388,0.431 -0.689,0.904 -0.904,1.42 -0.364,0.887 -0.547,1.85 -0.547,2.887 0,1.279 0.22,2.349 0.659,3.21 0.439,0.861 1.08,1.501 1.92,1.919 0.84,0.417 1.732,0.626 2.677,0.626 0.821,0 1.622,-0.159 2.403,-0.476 0.782,-0.318 1.375,-0.656 1.778,-1.017 v -2.68 z"
             id="path1810" />
          <path
             d="m 29.816,453.82 v -14.328 h 5.375 c 1.095,0 1.973,0.146 2.634,0.436 0.661,0.291 1.18,0.738 1.554,1.342 0.375,0.604 0.562,1.236 0.562,1.896 0,0.613 -0.166,1.191 -0.497,1.733 -0.331,0.542 -0.831,0.979 -1.5,1.313 0.862,0.254 1.525,0.687 1.989,1.298 0.463,0.611 0.695,1.333 0.695,2.165 0,0.67 -0.142,1.293 -0.425,1.868 -0.283,0.576 -0.634,1.02 -1.05,1.332 -0.416,0.312 -0.939,0.548 -1.568,0.707 -0.628,0.16 -1.398,0.239 -2.31,0.239 z m 1.89,-8.297 h 3.104 c 0.842,0 1.446,-0.056 1.812,-0.167 0.483,-0.144 0.847,-0.382 1.092,-0.715 0.245,-0.334 0.367,-0.752 0.367,-1.256 0,-0.477 -0.114,-0.896 -0.343,-1.26 -0.229,-0.364 -0.555,-0.611 -0.979,-0.745 -0.424,-0.134 -1.152,-0.201 -2.184,-0.201 h -2.869 z m 0,6.609 h 3.572 c 0.613,0 1.044,-0.022 1.292,-0.068 0.438,-0.078 0.803,-0.208 1.097,-0.391 0.293,-0.183 0.535,-0.447 0.724,-0.796 0.189,-0.348 0.284,-0.75 0.284,-1.206 0,-0.534 -0.137,-0.997 -0.41,-1.392 -0.273,-0.394 -0.653,-0.67 -1.139,-0.83 -0.486,-0.159 -1.187,-0.239 -2.101,-0.239 h -3.319 z"
             id="path1812" />
        </g>
      </g>
    </g>
    <g
       id="g4758"
       transform="matrix(0.1188908,0,0,0.1188908,268.88372,162.89357)">
      <path
         d="m 416,176.619 c 5.523,0 10,-4.477 10,-10 0,-5.523 -4.477,-10 -10,-10 H 366.848 V 130.238 H 416 c 5.523,0 10,-4.477 10,-10 0,-5.523 -4.477,-10 -10,-10 H 366.848 V 69.152 c 0,-5.523 -4.477,-10 -10,-10 H 315.762 V 10 c 0,-5.523 -4.477,-10 -10,-10 -5.523,0 -10,4.477 -10,10 V 59.152 H 269.38 V 10 c 0,-5.523 -4.477,-10 -10,-10 -5.523,0 -10,4.477 -10,10 V 59.152 H 223 V 10 C 223,4.477 218.523,0 213,0 207.477,0 203,4.477 203,10 V 59.152 H 176.619 V 10 c 0,-5.523 -4.477,-10 -10,-10 -5.523,0 -10,4.477 -10,10 V 59.152 H 130.238 V 10 c 0,-5.523 -4.477,-10 -10,-10 -5.523,0 -10,4.477 -10,10 V 59.152 H 69.152 c -5.523,0 -10,4.477 -10,10 v 41.086 H 10 c -5.523,0 -10,4.477 -10,10 0,5.523 4.477,10 10,10 h 49.152 v 26.381 H 10 c -5.523,0 -10,4.477 -10,10 0,5.523 4.477,10 10,10 H 59.152 V 203 H 10 c -5.523,0 -10,4.477 -10,10 0,5.523 4.477,10 10,10 h 49.152 v 26.381 H 10 c -5.523,0 -10,4.477 -10,10 0,5.523 4.477,10 10,10 h 49.152 v 26.381 H 10 c -5.523,0 -10,4.477 -10,10 0,5.523 4.477,10 10,10 h 49.152 v 41.086 c 0,5.523 4.477,10 10,10 h 41.086 V 416 c 0,5.523 4.477,10 10,10 5.523,0 10,-4.477 10,-10 v -49.152 h 26.381 V 416 c 0,5.523 4.477,10 10,10 5.523,0 10,-4.477 10,-10 V 366.848 H 203 V 416 c 0,5.523 4.477,10 10,10 5.523,0 10,-4.477 10,-10 v -49.152 h 26.38 V 416 c 0,5.523 4.477,10 10,10 5.523,0 10,-4.477 10,-10 v -49.152 h 26.381 V 416 c 0,5.523 4.477,10 10,10 5.523,0 10,-4.477 10,-10 v -49.152 h 41.086 c 5.523,0 10,-4.477 10,-10 V 315.762 H 416 c 5.523,0 10,-4.477 10,-10 0,-5.523 -4.477,-10 -10,-10 H 366.848 V 269.381 H 416 c 5.523,0 10,-4.477 10,-10 0,-5.523 -4.477,-10 -10,-10 H 366.848 V 223 H 416 c 5.523,0 10,-4.477 10,-10 0,-5.523 -4.477,-10 -10,-10 H 366.848 V 176.619 Z M 346.848,203 h -8.821 c -5.523,0 -10,4.477 -10,10 0,5.523 4.477,10 10,10 h 8.821 v 26.381 h -8.821 c -5.523,0 -10,4.477 -10,10 0,5.523 4.477,10 10,10 h 8.821 v 26.381 h -8.821 c -5.523,0 -10,4.477 -10,10 0,5.523 4.477,10 10,10 h 8.821 v 31.086 h -31.086 v -8.821 c 0,-5.523 -4.477,-10 -10,-10 -5.523,0 -10,4.477 -10,10 v 8.821 H 269.38 v -8.821 c 0,-5.523 -4.477,-10 -10,-10 -5.523,0 -10,4.477 -10,10 v 8.821 H 223 v -8.821 c 0,-5.523 -4.477,-10 -10,-10 -5.523,0 -10,4.477 -10,10 v 8.821 h -26.381 v -8.821 c 0,-5.523 -4.477,-10 -10,-10 -5.523,0 -10,4.477 -10,10 v 8.821 h -26.381 v -8.821 c 0,-5.523 -4.477,-10 -10,-10 -5.523,0 -10,4.477 -10,10 v 8.821 H 79.152 v -31.086 h 8.821 c 5.523,0 10,-4.477 10,-10 0,-5.523 -4.477,-10 -10,-10 h -8.821 v -26.381 h 8.821 c 5.523,0 10,-4.477 10,-10 0,-5.523 -4.477,-10 -10,-10 H 79.152 V 223 h 8.821 c 5.523,0 10,-4.477 10,-10 0,-5.523 -4.477,-10 -10,-10 h -8.821 v -26.381 h 8.821 c 5.523,0 10,-4.477 10,-10 0,-5.523 -4.477,-10 -10,-10 h -8.821 v -26.381 h 8.821 c 5.523,0 10,-4.477 10,-10 0,-5.523 -4.477,-10 -10,-10 H 79.152 V 79.152 h 31.086 v 8.821 c 0,5.523 4.477,10 10,10 5.523,0 10,-4.477 10,-10 v -8.821 h 26.381 v 8.821 c 0,5.523 4.477,10 10,10 5.523,0 10,-4.477 10,-10 V 79.152 H 203 v 8.821 c 0,5.523 4.477,10 10,10 5.523,0 10,-4.477 10,-10 v -8.821 h 26.38 v 8.821 c 0,5.523 4.477,10 10,10 5.523,0 10,-4.477 10,-10 v -8.821 h 26.381 v 8.821 c 0,5.523 4.477,10 10,10 5.523,0 10,-4.477 10,-10 v -8.821 h 31.086 v 31.086 h -8.821 c -5.523,0 -10,4.477 -10,10 0,5.523 4.477,10 10,10 h 8.821 v 26.381 h -8.821 c -5.523,0 -10,4.477 -10,10 0,5.523 4.477,10 10,10 h 8.821 V 203 Z"
         id="path4741" />
      <path
         d="M 266.774,149.225 H 159.225 c -5.523,0 -10,4.477 -10,10 v 107.55 c 0,5.523 4.477,10 10,10 h 107.549 c 5.523,0 10,-4.477 10,-10 v -107.55 c 0,-5.523 -4.477,-10 -10,-10 z m -10,107.55 h -87.549 v -87.55 h 87.549 z"
         id="path4743" />
    </g>
    <g
       id="g4931"
       transform="matrix(0.09736222,0,0,0.09736222,61.795089,69.09211)">
      <g
         id="g4907"
         transform="matrix(1.5185746,0,0,1.5185746,-146.62679,1057.3486)">
        <g
           id="g4849">
	<path
   d="M 411.999,130.626 H 73.567 v -5.002 c 0,-5.375 4.373,-9.749 9.749,-9.749 h 282.935 c 13.646,0 24.749,-11.103 24.749,-24.749 0,-13.647 -11.103,-24.75 -24.749,-24.75 h -68.445 c -4.143,0 -7.5,3.358 -7.5,7.5 0,4.142 3.357,7.5 7.5,7.5 h 68.445 c 5.376,0 9.749,4.374 9.749,9.75 0,5.375 -4.373,9.749 -9.749,9.749 H 83.316 c -13.646,0 -24.749,11.103 -24.749,24.749 v 5.002 H 21.634 C 9.705,130.626 0,140.332 0,152.26 v 193.362 c 0,11.929 9.705,21.633 21.634,21.633 h 390.365 c 11.929,0 21.633,-9.705 21.633,-21.633 V 152.26 c 0,-11.928 -9.704,-21.634 -21.633,-21.634 z m 6.633,214.996 c 0,3.658 -2.976,6.633 -6.633,6.633 H 21.634 C 17.976,352.255 15,349.279 15,345.622 V 152.26 c 0,-3.658 2.976,-6.634 6.634,-6.634 h 390.365 c 3.657,0 6.633,2.976 6.633,6.634 z"
   id="path4839" />

	<path
   d="M 401.132,155.627 H 32.5 c -4.143,0 -7.5,3.358 -7.5,7.5 v 171.628 c 0,4.142 3.357,7.5 7.5,7.5 h 368.632 c 4.143,0 7.5,-3.358 7.5,-7.5 V 163.127 c 0,-4.142 -3.358,-7.5 -7.5,-7.5 z m -115.377,15 h 46.438 v 27.875 h -46.438 z m -184.317,85.816 h 46.438 v 27.937 h -46.438 z m -30.718,-15 v -27.941 h 46.438 v 27.941 z m 61.438,0 v -27.941 h 46.438 v 27.941 z m 30.719,15 h 46.439 v 27.937 h -46.439 z m 30.72,-15 v -27.941 h 46.438 v 27.941 z m 30.719,15 h 46.438 v 27.937 h -46.438 z m 30.719,-15 v -27.941 h 46.438 v 27.941 z m 30.72,15 h 46.438 v 27.937 h -46.438 z m 30.719,-15 v -27.941 h 32.605 v 27.941 z m -92.158,-70.816 h 46.438 v 27.875 h -46.438 z m -61.439,0 h 46.439 v 27.875 h -46.439 z m -61.439,0 h 46.438 v 27.875 h -46.438 z m -61.438,0 h 46.438 v 27.875 H 40 Z m 0,42.875 h 15.72 v 27.941 H 40 Z m 0,42.941 H 86.438 V 284.38 H 40 Z m 15.72,70.812 H 40 V 299.38 h 15.72 z m 61.438,0 H 70.72 V 299.38 h 46.438 z m 61.439,0 H 132.159 V 299.38 h 46.438 z m 61.438,0 H 193.597 V 299.38 h 46.438 z m 61.439,0 H 255.036 V 299.38 h 46.438 z m 61.438,0 H 316.474 V 299.38 h 46.438 z m 30.72,0 h -15.72 V 299.38 h 15.72 z m 0,-42.875 h -46.438 v -27.937 h 9.386 c 4.143,0 7.5,-3.358 7.5,-7.5 v -35.441 h 29.553 v 70.878 z m 0,-85.878 h -46.438 v -27.875 h 46.438 z"
   id="path4841" />

	<path
   d="m 270.119,76.745 c -0.022,-0.052 -0.035,-0.082 -0.043,-0.102 0.038,0.09 0.174,0.41 0.043,0.102 z"
   id="path4843" />

	<path
   d="m 282.35,79.185 c 4.21,-4.337 1.792,-11.93 -4.298,-12.735 -5.578,-0.738 -10.16,5.034 -7.932,10.295 2.061,4.874 8.44,6.114 12.23,2.44 z"
   id="path4845" />

	<path
   d="m 270.076,76.643 c -0.011,-0.027 -0.015,-0.035 0,0 z"
   id="path4847" />

</g>
        <g
           id="g4851">
</g>
        <g
           id="g4853">
</g>
        <g
           id="g4855">
</g>
        <g
           id="g4857">
</g>
        <g
           id="g4859">
</g>
        <g
           id="g4861">
</g>
        <g
           id="g4863">
</g>
        <g
           id="g4865">
</g>
        <g
           id="g4867">
</g>
        <g
           id="g4869">
</g>
        <g
           id="g4871">
</g>
        <g
           id="g4873">
</g>
        <g
           id="g4875">
</g>
        <g
           id="g4877">
</g>
        <g
           id="g4879">
</g>
      </g>
    </g>
    <g
       id="g5110"
       transform="matrix(1.4268064,0,0,1.4268064,380.59431,166.15126)">
      <rect
         y="1"
         style="fill:#afb6bb"
         width="58"
         height="40"
         id="rect5024"
         x="0" />
      <path
         style="fill:#38454f"
         d="m 32,49.073 v 3.06 C 32,52.611 31.611,53 31.132,53 H 26.868 C 26.389,53 26,52.611 26,52.132 v -3.06 C 18.599,49.424 13,51.047 13,53 c 0,2.209 7.163,4 16,4 8.837,0 16,-1.791 16,-4 0,-1.953 -5.599,-3.576 -13,-3.927 z"
         id="path5026" />
      <path
         style="fill:#546a79"
         d="M 31.132,53 H 26.868 C 26.389,53 26,52.611 26,52.132 V 41 h 6 V 52.132 C 32,52.611 31.611,53 31.132,53 Z"
         id="path5028" />
      <rect
         y="5"
         style="fill:#546a79"
         width="58"
         height="32"
         id="rect5030"
         x="0" />
      <g
         id="g5046">
	<path
   style="fill:#839caa"
   d="m 4,14 c 0.256,0 0.512,-0.098 0.707,-0.293 l 4,-4 c 0.391,-0.391 0.391,-1.023 0,-1.414 -0.391,-0.391 -1.023,-0.391 -1.414,0 l -4,4 c -0.391,0.391 -0.391,1.023 0,1.414 C 3.488,13.902 3.744,14 4,14 Z"
   id="path5032" />

	<path
   style="fill:#839caa"
   d="m 4,19 c 0.256,0 0.512,-0.098 0.707,-0.293 l 2,-2 c 0.391,-0.391 0.391,-1.023 0,-1.414 -0.391,-0.391 -1.023,-0.391 -1.414,0 l -2,2 c -0.391,0.391 -0.391,1.023 0,1.414 C 3.488,18.902 3.744,19 4,19 Z"
   id="path5034" />

	<path
   style="fill:#839caa"
   d="M 7.29,13.29 C 7.11,13.48 7,13.74 7,14 7,14.27 7.11,14.52 7.29,14.71 7.48,14.89 7.73,15 8,15 8.26,15 8.52,14.89 8.71,14.71 8.89,14.52 9,14.26 9,14 9,13.74 8.89,13.48 8.71,13.29 8.33,12.92 7.66,12.92 7.29,13.29 Z"
   id="path5036" />

	<path
   style="fill:#839caa"
   d="M 9.293,12.707 C 9.488,12.902 9.744,13 10,13 c 0.256,0 0.512,-0.098 0.707,-0.293 l 3,-3 c 0.391,-0.391 0.391,-1.023 0,-1.414 -0.391,-0.391 -1.023,-0.391 -1.414,0 l -3,3 c -0.391,0.391 -0.391,1.023 0,1.414 z"
   id="path5038" />

	<path
   style="fill:#839caa"
   d="m 12.293,13.293 -9,9 c -0.391,0.391 -0.391,1.023 0,1.414 C 3.488,23.902 3.744,24 4,24 4.256,24 4.512,23.902 4.707,23.707 l 9,-9 c 0.391,-0.391 0.391,-1.023 0,-1.414 -0.391,-0.391 -1.023,-0.391 -1.414,0 z"
   id="path5040" />

	<path
   style="fill:#839caa"
   d="M 14.29,11.29 C 14.11,11.48 14,11.74 14,12 c 0,0.26 0.11,0.52 0.29,0.71 0.19,0.18 0.45,0.29 0.71,0.29 0.26,0 0.52,-0.11 0.71,-0.29 C 15.89,12.52 16,12.26 16,12 c 0,-0.27 -0.11,-0.52 -0.29,-0.71 -0.37,-0.37 -1.05,-0.37 -1.42,0 z"
   id="path5042" />

	<path
   style="fill:#839caa"
   d="m 18.707,8.293 c -0.391,-0.391 -1.023,-0.391 -1.414,0 l -1,1 c -0.391,0.391 -0.391,1.023 0,1.414 C 16.488,10.902 16.744,11 17,11 c 0.256,0 0.512,-0.098 0.707,-0.293 l 1,-1 c 0.391,-0.391 0.391,-1.023 0,-1.414 z"
   id="path5044" />

</g>
      <g
         id="g5048">
</g>
      <g
         id="g5050">
</g>
      <g
         id="g5052">
</g>
      <g
         id="g5054">
</g>
      <g
         id="g5056">
</g>
      <g
         id="g5058">
</g>
      <g
         id="g5060">
</g>
      <g
         id="g5062">
</g>
      <g
         id="g5064">
</g>
      <g
         id="g5066">
</g>
      <g
         id="g5068">
</g>
      <g
         id="g5070">
</g>
      <g
         id="g5072">
</g>
      <g
         id="g5074">
</g>
      <g
         id="g5076">
</g>
    </g>
    <g
       id="g5404"
       transform="matrix(0.07898163,0,0,0.07898163,297.09355,219.46829)">
      <g
         id="g5346">
	<g
   id="g5344">
		<path
   d="m 248.759,122.434 c -3.753,-2.522 -8.52,-2.999 -12.69,-1.291 L 97.601,177.807 H 13.557 C 6.07,177.807 0,183.878 0,191.364 v 117.332 c 0,7.485 6.07,13.56 13.557,13.56 H 97.6 l 138.468,56.669 c 1.648,0.675 3.396,1.007 5.13,1.007 2.654,0 5.289,-0.775 7.56,-2.298 3.746,-2.522 5.997,-6.737 5.997,-11.26 V 133.688 c 0.001,-4.515 -2.25,-8.738 -5.996,-11.254 z M 27.115,204.921 h 59.596 v 90.218 H 27.115 Z M 227.642,346.178 113.825,299.604 v -99.136 l 113.817,-46.583 z"
   id="path5336" />

		<path
   d="m 327.532,144.061 c -5.29,-5.295 -13.882,-5.295 -19.171,0 -5.296,5.289 -5.296,13.875 0,19.17 47.866,47.86 47.866,125.741 0,173.605 -5.296,5.289 -5.296,13.875 0,19.17 2.646,2.648 6.116,3.974 9.585,3.974 3.469,0 6.943,-1.324 9.586,-3.974 58.438,-58.437 58.438,-153.514 0,-211.945 z"
   id="path5338" />

		<path
   d="m 375.286,96.321 c -5.29,-5.296 -13.883,-5.296 -19.171,0 -5.296,5.289 -5.296,13.875 0,19.17 74.186,74.186 74.186,194.899 0,269.086 -5.296,5.297 -5.296,13.883 0,19.17 2.646,2.648 6.116,3.973 9.585,3.973 3.469,0 6.944,-1.323 9.586,-3.973 84.756,-84.756 84.756,-222.669 0,-307.426 z"
   id="path5340" />

		<path
   d="m 418.491,53.108 c -5.295,-5.295 -13.881,-5.295 -19.17,0 -5.295,5.289 -5.295,13.875 0,19.17 47.482,47.476 73.636,110.607 73.636,177.756 0,67.149 -26.153,130.274 -73.636,177.756 -5.295,5.295 -5.295,13.881 0,19.17 2.646,2.648 6.116,3.974 9.586,3.974 3.468,0 6.943,-1.324 9.584,-3.974 52.604,-52.6 81.58,-122.534 81.58,-196.926 0,-74.391 -28.974,-144.327 -81.58,-196.926 z"
   id="path5342" />

	</g>

</g>
      <g
         id="g5348">
</g>
      <g
         id="g5350">
</g>
      <g
         id="g5352">
</g>
      <g
         id="g5354">
</g>
      <g
         id="g5356">
</g>
      <g
         id="g5358">
</g>
      <g
         id="g5360">
</g>
      <g
         id="g5362">
</g>
      <g
         id="g5364">
</g>
      <g
         id="g5366">
</g>
      <g
         id="g5368">
</g>
      <g
         id="g5370">
</g>
      <g
         id="g5372">
</g>
      <g
         id="g5374">
</g>
      <g
         id="g5376">
</g>
    </g>
    <g
       id="g5602"
       transform="matrix(1.4025467,0,0,1.4025467,251.02509,220.73881)">
      <g
         id="g5546">
	<g
   id="g5544">
		<path
   d="m 23.375,8.25 c -0.552,0 -1,0.447 -1,1 v 7 c 0,2.206 -1.794,4 -4,4 h -8 c -2.206,0 -4,-1.794 -4,-4 v -7 c 0,-0.553 -0.448,-1 -1,-1 -0.552,0 -1,0.447 -1,1 v 7 c 0,3.309 2.691,6 6,6 h 3 v 3.5 h -5 c -0.829,0 -1.5,0.672 -1.5,1.5 0,0.828 0.671,1.5 1.5,1.5 h 12 c 0.829,0 1.5,-0.672 1.5,-1.5 0,-0.828 -0.671,-1.5 -1.5,-1.5 h -5 v -3.5 h 3 c 3.309,0 6,-2.691 6,-6 v -7 c 0,-0.553 -0.448,-1 -1,-1 z"
   id="path5540" />

		<path
   d="m 11.875,18.5 h 5 c 2.068,0 3.75,-1.684 3.75,-3.75 v -11 C 20.625,1.683 18.943,0 16.875,0 h -5 C 9.807,0 8.125,1.683 8.125,3.75 v 11 c 0,2.066 1.682,3.75 3.75,3.75 z m -2.25,-3.75 v -5 h 1.25 v 7.005 C 10.137,16.385 9.625,15.63 9.625,14.75 Z m 2.25,-5 h 0.999 V 17 h -0.999 z m 3,0 V 17 H 13.874 V 9.75 Z m 1,7.25 V 9.75 h 1 V 17 Z m 2,-0.245 V 9.75 h 1.25 v 5 c 0,0.88 -0.512,1.635 -1.25,2.005 z m -6,-15.255 h 5 c 1.241,0 2.25,1.01 2.25,2.25 v 5 h -9.5 v -5 c 0,-1.24 1.009,-2.25 2.25,-2.25 z"
   id="path5542" />

	</g>

</g>
      <g
         id="g5548">
</g>
      <g
         id="g5550">
</g>
      <g
         id="g5552">
</g>
      <g
         id="g5554">
</g>
      <g
         id="g5556">
</g>
      <g
         id="g5558">
</g>
      <g
         id="g5560">
</g>
      <g
         id="g5562">
</g>
      <g
         id="g5564">
</g>
      <g
         id="g5566">
</g>
      <g
         id="g5568">
</g>
      <g
         id="g5570">
</g>
      <g
         id="g5572">
</g>
      <g
         id="g5574">
</g>
      <g
         id="g5576">
</g>
    </g>
    <g
       id="g13354"
       transform="translate(-16.864944,-3.8986626)">
      <rect
         style="fill:#000072;fill-opacity:1;fill-rule:evenodd;stroke-width:0.264583"
         id="rect5626"
         width="177.05371"
         height="108.25294"
         x="181.86494"
         y="26.461832" />
      <text
         xml:space="preserve"
         style="font-style:normal;font-weight:normal;font-size:19.7556px;line-height:1.25;font-family:sans-serif;fill:#ffffff;fill-opacity:1;stroke:none;stroke-width:0.264583"
         x="220.88222"
         y="85.913055"
         id="text6246"><tspan
           sodipodi:role="line"
           id="tspan6244"
           style="font-size:19.7556px;fill:#ffffff;fill-opacity:1;stroke-width:0.264583"
           x="220.88222"
           y="85.913055">Computer</tspan></text>
    </g>
  </g>
</svg>
